<svg xmlns="http://www.w3.org/2000/svg" width="21" height="21" viewBox="0 0 21 21">
    <defs>
        <filter id="d62gdx142a">
            <feColorMatrix in="SourceGraphic" values="0 0 0 0 0.815686 0 0 0 0 0.192157 0 0 0 0 0.247059 0 0 0 1.000000 0"/>
        </filter>
    </defs>
    <g fill="none" fill-rule="evenodd">
        <g>
            <g filter="url(#d62gdx142a)" transform="translate(-1240 -125) translate(835 102)">
                <g fill="#000" fill-rule="nonzero">
                    <path d="M10.5 0C4.701 0 0 4.701 0 10.5S4.701 21 10.5 21 21 16.299 21 10.5C20.993 4.704 16.296.007 10.5 0zm0 20.323c-5.425 0-9.823-4.398-9.823-9.823C.677 5.075 5.075.677 10.5.677c5.425 0 9.823 4.398 9.823 9.823-.006 5.422-4.4 9.817-9.823 9.823z" transform="translate(405 23)"/>
                    <path d="M15.29 5.71c-.132-.132-.347-.132-.479 0L10.5 10.021 6.189 5.71c-.13-.135-.344-.138-.479-.008s-.138.344-.008.479l.008.008 4.311 4.311-4.311 4.311c-.135.13-.138.344-.008.479s.344.138.479.008l.008-.008 4.311-4.311 4.311 4.311c.135.13.35.126.479-.008.127-.132.127-.34 0-.47L10.979 10.5l4.311-4.311c.132-.132.132-.347 0-.479z" transform="translate(405 23)"/>
                </g>
            </g>
        </g>
    </g>
</svg>
